<?xml version="1.0" encoding="UTF-8"?>
<svg xmlns="http://www.w3.org/2000/svg" xmlns:xlink="http://www.w3.org/1999/xlink" width="96pt" height="96pt" viewBox="0 0 96 96" version="1.1">
<g id="surface18350395">
<path style="fill-rule:nonzero;fill:rgb(100%,34.117647%,13.333333%);fill-opacity:1;stroke-width:1;stroke-linecap:butt;stroke-linejoin:round;stroke:rgb(0%,0%,0%);stroke-opacity:1;stroke-miterlimit:10;" d="M 21.497916 35.833277 C 21.497916 27.919256 27.919256 21.497916 35.833277 21.497916 L 136.166723 21.497916 C 144.080744 21.497916 150.502084 27.919256 150.502084 35.833277 L 150.502084 136.166723 C 150.502084 144.080744 144.080744 150.502084 136.166723 150.502084 L 35.833277 150.502084 C 27.919256 150.502084 21.497916 144.080744 21.497916 136.166723 Z M 21.497916 35.833277 " transform="matrix(0.554791,0,0,0.554791,0.288,0.288)"/>
<path style="fill-rule:nonzero;fill:rgb(10.980392%,3.137255%,0.784314%);fill-opacity:1;stroke-width:1;stroke-linecap:butt;stroke-linejoin:round;stroke:rgb(0%,0%,0%);stroke-opacity:1;stroke-miterlimit:10;" d="M 139.750563 32.249437 L 139.750563 139.750563 L 32.249437 139.750563 L 32.249437 32.249437 Z M 95.885485 111.079841 L 79.853256 60.131573 L 70.439515 60.131573 L 54.519941 111.079841 L 65.40524 111.079841 L 68.130085 100.659245 L 82.162686 100.659245 L 84.894572 111.079841 Z M 110.544729 73.220687 L 100.609958 73.220687 L 100.609958 111.079841 L 110.544729 111.079841 Z M 110.931981 63.419694 C 110.931981 61.877727 110.439115 60.617398 109.460424 59.638707 C 108.481733 58.660016 107.172117 58.174191 105.538618 58.174191 C 103.91216 58.174191 102.595504 58.660016 101.616813 59.638707 C 100.638122 60.624439 100.152297 61.877727 100.152297 63.419694 C 100.152297 64.940538 100.631081 66.200867 101.602731 67.200681 C 102.574381 68.207536 103.883997 68.707443 105.538618 68.707443 C 107.200281 68.707443 108.509897 68.207536 109.474506 67.200681 C 110.446156 66.200867 110.931981 64.940538 110.931981 63.419694 Z M 110.931981 63.419694 " transform="matrix(0.554791,0,0,0.554791,0.288,0.288)"/>
<path style="fill-rule:nonzero;fill:rgb(10.980392%,3.137255%,0.784314%);fill-opacity:1;stroke-width:1;stroke-linecap:butt;stroke-linejoin:round;stroke:rgb(0%,0%,0%);stroke-opacity:1;stroke-miterlimit:10;" d="M 75.128783 73.917741 L 79.888461 92.083375 L 70.376146 92.083375 Z M 75.128783 73.917741 " transform="matrix(0.554791,0,0,0.554791,0.288,0.288)"/>
<path style=" stroke:none;fill-rule:nonzero;fill:rgb(100%,100%,100%);fill-opacity:1;" d="M 12.214844 20.167969 C 12.214844 15.777344 15.777344 12.214844 20.167969 12.214844 L 75.832031 12.214844 C 80.222656 12.214844 83.785156 15.777344 83.785156 20.167969 L 83.785156 75.832031 C 83.785156 80.222656 80.222656 83.785156 75.832031 83.785156 L 20.167969 83.785156 C 15.777344 83.785156 12.214844 80.222656 12.214844 75.832031 Z M 12.214844 20.167969 "/>
<path style=" stroke:none;fill-rule:nonzero;fill:rgb(10.980392%,3.137255%,0.784314%);fill-opacity:1;" d="M 18.179688 18.179688 L 18.179688 77.820312 L 77.820312 77.820312 L 77.820312 18.179688 Z M 47.386719 61.914062 L 45.871094 56.132812 L 38.085938 56.132812 L 36.574219 61.914062 L 30.535156 61.914062 L 39.367188 33.648438 L 44.589844 33.648438 L 53.484375 61.914062 Z M 61.617188 61.914062 L 56.105469 61.914062 L 56.105469 40.910156 L 61.617188 40.910156 Z M 61.023438 37.570312 C 60.488281 38.128906 59.761719 38.40625 58.839844 38.40625 C 57.921875 38.40625 57.195312 38.128906 56.65625 37.570312 C 56.117188 37.015625 55.851562 36.316406 55.851562 35.472656 C 55.851562 34.617188 56.121094 33.921875 56.664062 33.375 C 57.207031 32.832031 57.9375 32.5625 58.839844 32.5625 C 59.746094 32.5625 60.472656 32.832031 61.015625 33.375 C 61.558594 33.917969 61.832031 34.617188 61.832031 35.472656 C 61.832031 36.316406 61.5625 37.015625 61.023438 37.570312 Z M 61.023438 37.570312 "/>
<path style=" stroke:none;fill-rule:nonzero;fill:rgb(10.980392%,3.137255%,0.784314%);fill-opacity:1;" d="M 39.332031 51.375 L 44.609375 51.375 L 41.96875 41.296875 Z M 39.332031 51.375 "/>
</g>
</svg>
