<?xml version="1.0" encoding="UTF-8"?>
<svg xmlns="http://www.w3.org/2000/svg" xmlns:xlink="http://www.w3.org/1999/xlink" width="96pt" height="96pt" viewBox="0 0 96 96" version="1.1">
<g id="surface18350844">
<path style="fill-rule:nonzero;fill:rgb(100%,100%,100%);fill-opacity:1;stroke-width:1;stroke-linecap:butt;stroke-linejoin:round;stroke:rgb(0%,0%,0%);stroke-opacity:1;stroke-miterlimit:10;" d="M 21.497916 35.833277 C 21.497916 27.919256 27.919256 21.497916 35.833277 21.497916 L 136.166723 21.497916 C 144.080744 21.497916 150.502084 27.919256 150.502084 35.833277 L 150.502084 136.166723 C 150.502084 144.080744 144.080744 150.502084 136.166723 150.502084 L 35.833277 150.502084 C 27.919256 150.502084 21.497916 144.080744 21.497916 136.166723 Z M 21.497916 35.833277 " transform="matrix(0.554791,0,0,0.554791,0.288,0.288)"/>
<path style="fill-rule:nonzero;fill:rgb(0.784314%,5.882353%,8.627451%);fill-opacity:1;stroke-width:1;stroke-linecap:butt;stroke-linejoin:round;stroke:rgb(0%,0%,0%);stroke-opacity:1;stroke-miterlimit:10;" d="M 76.135638 71.00279 C 77.234025 72.502511 77.783219 74.523262 77.783219 77.072084 C 77.783219 79.522332 77.248107 81.388182 76.170843 82.669634 C 75.093578 83.951085 73.579776 84.598852 71.622393 84.598852 L 64.553286 84.598852 L 64.553286 68.707443 L 71.720966 68.707443 C 73.565694 68.728565 75.037251 69.496028 76.135638 71.00279 Z M 76.135638 71.00279 " transform="matrix(0.554791,0,0,0.554791,0.288,0.288)"/>
<path style="fill-rule:nonzero;fill:rgb(0.784314%,5.882353%,8.627451%);fill-opacity:1;stroke-width:1;stroke-linecap:butt;stroke-linejoin:round;stroke:rgb(0%,0%,0%);stroke-opacity:1;stroke-miterlimit:10;" d="M 139.750563 32.249437 L 139.750563 139.750563 L 32.249437 139.750563 L 32.249437 32.249437 Z M 88.168611 77.001674 C 88.168611 72.009645 86.66889 67.947021 83.676489 64.820842 C 80.677047 61.694663 76.656668 60.131573 71.622393 60.131573 L 54.259426 60.131573 L 54.259426 111.079841 L 64.553286 111.079841 L 64.553286 93.167681 L 71.411165 93.167681 C 76.656668 93.167681 80.761538 91.724287 83.725775 88.830459 C 86.690012 85.929591 88.168611 81.993703 88.168611 77.001674 Z M 120.92308 100.546589 C 120.92308 97.631639 120.092249 95.258841 118.423545 93.428195 C 116.754842 91.59755 113.903259 89.935887 109.861758 88.443207 C 107.087626 87.253288 105.32739 86.330924 104.58105 85.690198 C 103.827669 85.049473 103.454499 84.310174 103.454499 83.472301 C 103.454499 82.303505 103.792464 81.395223 104.475436 80.740415 C 105.151367 80.085607 106.010362 79.761724 107.059462 79.761724 C 109.629407 79.761724 110.910858 81.303691 110.910858 84.380583 L 120.817466 84.380583 C 120.817466 80.761538 119.571219 77.881792 117.071684 75.734304 C 114.572149 73.593857 111.248824 72.516593 107.101708 72.516593 C 103.158779 72.516593 99.990355 73.600898 97.596434 75.755427 C 95.209554 77.909956 94.012594 80.648883 94.012594 83.958126 C 94.012594 86.59848 94.773016 88.795255 96.307941 90.576613 C 97.835826 92.350931 100.638122 94.068921 104.721869 95.723543 C 107.503042 96.934585 109.2844 97.899195 110.094109 98.603289 C 110.896776 99.314424 111.29811 100.095969 111.29811 100.933841 C 111.29811 103.334803 109.967372 104.538804 107.312936 104.538804 C 105.580864 104.538804 104.341658 104.109307 103.581236 103.243271 C 102.820814 102.377235 102.426521 101.081701 102.377235 99.35667 L 92.963493 99.35667 C 92.963493 101.59569 93.561973 103.68685 94.765975 105.62311 C 95.962935 107.559369 97.631639 109.066131 99.750963 110.157477 C 101.877328 111.241783 104.327576 111.783935 107.101708 111.783935 C 111.227701 111.783935 114.572149 110.755958 117.11393 108.707043 C 119.648669 106.651088 120.92308 103.933283 120.92308 100.546589 Z M 120.92308 100.546589 " transform="matrix(0.554791,0,0,0.554791,0.288,0.288)"/>
<path style=" stroke:none;fill-rule:nonzero;fill:rgb(100%,100%,100%);fill-opacity:1;" d="M 12.214844 20.167969 C 12.214844 15.777344 15.777344 12.214844 20.167969 12.214844 L 75.832031 12.214844 C 80.222656 12.214844 83.785156 15.777344 83.785156 20.167969 L 83.785156 75.832031 C 83.785156 80.222656 80.222656 83.785156 75.832031 83.785156 L 20.167969 83.785156 C 15.777344 83.785156 12.214844 80.222656 12.214844 75.832031 Z M 12.214844 20.167969 "/>
<path style=" stroke:none;fill-rule:nonzero;fill:rgb(0.784314%,5.882353%,8.627451%);fill-opacity:1;" d="M 40.078125 38.40625 L 36.101562 38.40625 L 36.101562 47.21875 L 40.023438 47.21875 C 41.109375 47.21875 41.949219 46.863281 42.546875 46.152344 C 43.144531 45.441406 43.441406 44.40625 43.441406 43.046875 C 43.441406 41.632812 43.136719 40.511719 42.527344 39.679688 C 41.917969 38.84375 41.101562 38.417969 40.078125 38.40625 Z M 40.078125 38.40625 "/>
<path style=" stroke:none;fill-rule:nonzero;fill:rgb(0.784314%,5.882353%,8.627451%);fill-opacity:1;" d="M 18.179688 18.179688 L 18.179688 77.820312 L 77.820312 77.820312 L 77.820312 18.179688 Z M 46.738281 49.570312 C 45.09375 51.175781 42.816406 51.976562 39.90625 51.976562 L 36.101562 51.976562 L 36.101562 61.914062 L 30.390625 61.914062 L 30.390625 33.648438 L 40.023438 33.648438 C 42.816406 33.648438 45.046875 34.515625 46.710938 36.25 C 48.371094 37.984375 49.203125 40.238281 49.203125 43.007812 C 49.203125 45.777344 48.382812 47.960938 46.738281 49.570312 Z M 65.261719 60.597656 C 63.851562 61.734375 61.996094 62.304688 59.707031 62.304688 C 58.167969 62.304688 56.808594 62.003906 55.628906 61.402344 C 54.453125 60.796875 53.527344 59.960938 52.863281 58.886719 C 52.195312 57.8125 51.863281 56.652344 51.863281 55.410156 L 57.085938 55.410156 C 57.113281 56.367188 57.332031 57.085938 57.753906 57.566406 C 58.175781 58.046875 58.863281 58.285156 59.824219 58.285156 C 61.296875 58.285156 62.035156 57.617188 62.035156 56.285156 C 62.035156 55.820312 61.8125 55.386719 61.367188 54.992188 C 60.917969 54.601562 59.929688 54.066406 58.386719 53.394531 C 56.121094 52.476562 54.566406 51.523438 53.71875 50.539062 C 52.867188 49.550781 52.445312 48.332031 52.445312 46.867188 C 52.445312 45.03125 53.109375 43.511719 54.433594 42.316406 C 55.761719 41.121094 57.519531 40.519531 59.707031 40.519531 C 62.007812 40.519531 63.851562 41.117188 65.238281 42.304688 C 66.625 43.496094 67.316406 45.09375 67.316406 47.101562 L 61.820312 47.101562 C 61.820312 45.394531 61.109375 44.539062 59.683594 44.539062 C 59.101562 44.539062 58.625 44.71875 58.25 45.082031 C 57.871094 45.445312 57.6875 45.949219 57.6875 46.597656 C 57.6875 47.0625 57.890625 47.472656 58.308594 47.828125 C 58.722656 48.183594 59.699219 48.695312 61.238281 49.355469 C 63.480469 50.183594 65.0625 51.105469 65.988281 52.121094 C 66.914062 53.136719 67.375 54.453125 67.375 56.070312 C 67.375 57.949219 66.667969 59.457031 65.261719 60.597656 Z M 65.261719 60.597656 "/>
</g>
</svg>
